<?xml version="1.0" encoding="UTF-8"?><svg id="Layer_2" xmlns="http://www.w3.org/2000/svg" viewBox="0 0 99.64 99.64"><defs><style>.cls-1{fill:#f6ebf8;}.cls-2{fill:#01dade;}.cls-3{fill:#eaa7fd;}.cls-4{fill:#2e8eec;}</style></defs><g id="Layer_1-2"><rect class="cls-4" x="63.64" y="31.82" width="36" height="36" rx="18" ry="18" transform="translate(-11.32 72.32) rotate(-45)"/><rect class="cls-3" x="0" y="31.82" width="36" height="36" rx="18" ry="18" transform="translate(-29.96 27.32) rotate(-45)"/><rect class="cls-1" x="31.82" y="63.64" width="36" height="36" rx="18" ry="18" transform="translate(-43.14 59.14) rotate(-45)"/><path class="cls-2" d="M67.82,18c0-4.6-1.76-9.21-5.28-12.73S54.42,0,49.82,0c-4.6,0-9.21,1.76-12.73,5.28-7.03,7.03-7.03,18.43,0,25.46,3.51,3.51,8.12,5.27,12.73,5.27,4.6,0,9.21-1.76,12.73-5.27s5.27-8.12,5.28-12.73Zm-26.49,8.49c-4.68-4.68-4.68-12.29,0-16.97s12.29-4.68,16.97,0,4.68,12.29,0,16.97-12.29,4.68-16.97,0Z"/></g></svg>