<?xml version="1.0" encoding="UTF-8"?><svg id="Layer_2" xmlns="http://www.w3.org/2000/svg" viewBox="0 0 128 128"><g id="Layer_1-2"><path d="M109,3c8.82,0,16,7.18,16,16s-7.18,16-16,16-16-7.18-16-16,7.18-16,16-16m0-2c-9.94,0-18,8.06-18,18h0c0,9.94,8.06,18,18,18s18-8.06,18-18h0c0-9.94-8.06-18-18-18h0Z"/><path d="M109,48c4.27,0,8.29,1.66,11.31,4.68,3.02,3.03,4.69,7.05,4.69,11.32s-1.66,8.29-4.68,11.31c-3.03,3.02-7.05,4.69-11.32,4.69-8.82,0-16-7.18-16-16,0-4.27,1.66-8.29,4.68-11.31,3.03-3.02,7.05-4.69,11.32-4.69m0,29c7.17,0,13-5.83,13-13s-5.83-13-13-13-13,5.83-13,13,5.83,13,13,13m0-31c-4.97,0-9.47,2.02-12.73,5.27-3.25,3.26-5.27,7.76-5.27,12.73,0,9.94,8.06,18,18,18,4.97,0,9.47-2.02,12.73-5.27,3.25-3.26,5.27-7.76,5.27-12.73s-2.02-9.47-5.27-12.73c-3.26-3.25-7.76-5.27-12.73-5.27h0Zm0,29c-6.07,0-11-4.93-11-11s4.93-11,11-11,11,4.93,11,11-4.93,11-11,11h0Z"/><path d="M64,93c4.27,0,8.29,1.66,11.31,4.68,3.02,3.03,4.69,7.05,4.69,11.32s-1.66,8.29-4.68,11.31c-3.03,3.02-7.05,4.69-11.32,4.69-8.82,0-16-7.18-16-16,0-4.27,1.66-8.29,4.68-11.31,3.03-3.02,7.05-4.69,11.32-4.69m0,29c7.17,0,13-5.83,13-13s-5.83-13-13-13-13,5.83-13,13,5.83,13,13,13m0-31c-4.97,0-9.47,2.02-12.73,5.27-3.25,3.26-5.27,7.76-5.27,12.73,0,9.94,8.06,18,18,18,4.97,0,9.47-2.02,12.73-5.27,3.25-3.26,5.27-7.76,5.27-12.73s-2.02-9.47-5.27-12.73c-3.26-3.25-7.76-5.27-12.73-5.27h0Zm0,29c-6.07,0-11-4.93-11-11s4.93-11,11-11,11,4.93,11,11-4.93,11-11,11h0Z"/><path d="M19,48c4.27,0,8.29,1.66,11.31,4.68,3.02,3.03,4.69,7.05,4.69,11.32s-1.66,8.29-4.68,11.31c-3.03,3.02-7.05,4.69-11.32,4.69-8.82,0-16-7.18-16-16,0-4.27,1.66-8.29,4.68-11.31,3.03-3.02,7.05-4.69,11.32-4.69m0,29c7.17,0,13-5.83,13-13s-5.83-13-13-13-13,5.83-13,13,5.83,13,13,13m0-31c-4.97,0-9.47,2.02-12.73,5.27-3.25,3.26-5.27,7.76-5.27,12.73,0,9.94,8.06,18,18,18,4.97,0,9.47-2.02,12.73-5.27,3.25-3.26,5.27-7.76,5.27-12.73s-2.02-9.47-5.27-12.73c-3.26-3.25-7.76-5.27-12.73-5.27h0Zm0,29c-6.07,0-11-4.93-11-11s4.93-11,11-11,11,4.93,11,11-4.93,11-11,11h0Z"/><path d="M64,3c4.27,0,8.29,1.66,11.31,4.68,3.02,3.03,4.69,7.05,4.69,11.32s-1.66,8.29-4.68,11.31c-3.03,3.02-7.05,4.69-11.32,4.69-8.82,0-16-7.18-16-16,0-4.27,1.66-8.29,4.68-11.31,3.03-3.02,7.05-4.69,11.32-4.69m0,29c7.17,0,13-5.83,13-13s-5.83-13-13-13-13,5.83-13,13,5.83,13,13,13m0-31c-4.97,0-9.47,2.02-12.73,5.27-3.25,3.26-5.27,7.76-5.27,12.73,0,9.94,8.06,18,18,18,4.97,0,9.47-2.02,12.73-5.27,3.25-3.26,5.27-7.76,5.27-12.73s-2.02-9.47-5.27-12.73c-3.26-3.25-7.76-5.27-12.73-5.27h0Zm0,29c-6.07,0-11-4.93-11-11s4.93-11,11-11,11,4.93,11,11-4.93,11-11,11h0Z"/><path d="M19,3c8.82,0,16,7.18,16,16s-7.18,16-16,16S3,27.82,3,19,10.18,3,19,3m0-2C9.06,1,1,9.06,1,19h0c0,9.94,8.06,18,18,18s18-8.06,18-18h0C37,9.06,28.94,1,19,1h0Z"/><path d="M64,48c8.82,0,16,7.18,16,16s-7.18,16-16,16-16-7.18-16-16,7.18-16,16-16m0-2c-9.94,0-18,8.06-18,18h0c0,9.94,8.06,18,18,18s18-8.06,18-18h0c0-9.94-8.06-18-18-18h0Z"/><path d="M109,93c8.82,0,16,7.18,16,16s-7.18,16-16,16-16-7.18-16-16,7.18-16,16-16m0-2c-9.94,0-18,8.06-18,18h0c0,9.94,8.06,18,18,18s18-8.06,18-18h0c0-9.94-8.06-18-18-18h0Z"/><path d="M19,93c8.82,0,16,7.18,16,16s-7.18,16-16,16S3,117.82,3,109s7.18-16,16-16m0-2c-9.94,0-18,8.06-18,18h0c0,9.94,8.06,18,18,18s18-8.06,18-18h0c0-9.94-8.06-18-18-18h0Z"/></g></svg>