<?xml version="1.0" encoding="UTF-8"?><svg id="Layer_2" xmlns="http://www.w3.org/2000/svg" viewBox="0 0 126 126"><defs><style>.cls-1{fill:#fff;}.cls-2{opacity:.77;}</style></defs><g id="Layer_1-2"><g class="cls-2"><path class="cls-1" d="M120.73,50.27c-3.26-3.25-7.76-5.27-12.73-5.27s-9.47,2.02-12.73,5.27c-3.25,3.26-5.27,7.76-5.27,12.73,0,9.94,8.06,18,18,18,4.97,0,9.47-2.02,12.73-5.27,3.25-3.26,5.27-7.76,5.27-12.73s-2.02-9.47-5.27-12.73Zm-12.73,23.73c-6.07,0-11-4.93-11-11s4.93-11,11-11,11,4.93,11,11-4.93,11-11,11Z"/></g><g class="cls-2"><path class="cls-1" d="M75.73,95.27c-3.26-3.25-7.76-5.27-12.73-5.27s-9.47,2.02-12.73,5.27c-3.25,3.26-5.27,7.76-5.27,12.73,0,9.94,8.06,18,18,18,4.97,0,9.47-2.02,12.73-5.27,3.25-3.26,5.27-7.76,5.27-12.73s-2.02-9.47-5.27-12.73Zm-12.73,23.73c-6.07,0-11-4.93-11-11s4.93-11,11-11,11,4.93,11,11-4.93,11-11,11Z"/></g><g class="cls-2"><path class="cls-1" d="M30.73,50.27c-3.26-3.25-7.76-5.27-12.73-5.27s-9.47,2.02-12.73,5.27c-3.25,3.26-5.27,7.76-5.27,12.73,0,9.94,8.06,18,18,18,4.97,0,9.47-2.02,12.73-5.27,3.25-3.26,5.27-7.76,5.27-12.73s-2.02-9.47-5.27-12.73Zm-12.73,23.73c-6.07,0-11-4.93-11-11s4.93-11,11-11,11,4.93,11,11-4.93,11-11,11Z"/></g><g class="cls-2"><path class="cls-1" d="M30.73,5.27C27.47,2.02,22.97,0,18,0S8.53,2.02,5.27,5.27C2.02,8.53,0,13.03,0,18c0,9.94,8.06,18,18,18,4.97,0,9.47-2.02,12.73-5.27,3.25-3.26,5.27-7.76,5.27-12.73s-2.02-9.47-5.27-12.73Zm-12.73,23.73c-6.07,0-11-4.93-11-11S11.93,7,18,7s11,4.93,11,11-4.93,11-11,11Z"/></g><g class="cls-2"><path class="cls-1" d="M120.73,5.27c-3.26-3.25-7.76-5.27-12.73-5.27s-9.47,2.02-12.73,5.27c-3.25,3.26-5.27,7.76-5.27,12.73,0,9.94,8.06,18,18,18,4.97,0,9.47-2.02,12.73-5.27,3.25-3.26,5.27-7.76,5.27-12.73s-2.02-9.47-5.27-12.73Zm-12.73,23.73c-6.07,0-11-4.93-11-11s4.93-11,11-11,11,4.93,11,11-4.93,11-11,11Z"/></g><g class="cls-2"><rect class="cls-1" x="45" y="45" width="36" height="36" rx="18" ry="18"/></g><g class="cls-2"><rect class="cls-1" x="90" y="90" width="36" height="36" rx="18" ry="18"/></g><g class="cls-2"><rect class="cls-1" x="0" y="90" width="36" height="36" rx="18" ry="18"/></g><g class="cls-2"><rect class="cls-1" x="45" y="0" width="36" height="36" rx="18" ry="18"/></g></g></svg>