<?xml version="1.0" encoding="UTF-8"?><svg id="Layer_2" xmlns="http://www.w3.org/2000/svg" viewBox="0 0 126 126.02"><defs><style>.cls-1,.cls-2{fill:#96abed;}.cls-1,.cls-3{stroke:#c3b3e6;}.cls-1,.cls-3,.cls-4,.cls-5{stroke-linecap:round;stroke-linejoin:round;stroke-width:2px;}.cls-6{fill:#c3b3e6;}.cls-3,.cls-4,.cls-5{fill:none;}.cls-4{stroke:#96abed;}.cls-5{stroke:#a28ada;}</style></defs><g id="Layer_1-2"><g><circle class="cls-6" cx="63" cy="18" r="17.5"/><path d="M63,1c9.37,0,17,7.63,17,17s-7.63,17-17,17-17-7.63-17-17S53.63,1,63,1m0-1c-9.94,0-18,8.06-18,18h0c0,9.94,8.06,18,18,18s18-8.06,18-18h0c0-9.94-8.06-18-18-18h0Z"/></g><path class="cls-4" d="M96.33,5.64c.19,.34,6.74-4.18,6.86-3.97,.03,.05-9.36,5.91-9.04,6.46,0,0,11.85-7.72,12.23-7.07,.57,.99-14.82,12.11-14.73,12.27,0,0,20.37-12.04,20.49-11.84l-21.12,15.65S114.98,1.52,115.75,2.85c.06,.1-25.43,14.55-24.74,15.76,0,0,25.71-15.56,26.01-15.04,.41,.71-25.89,16.57-25.89,16.57,.99,1.72,26.89-16.15,27.15-15.69,0,0-27.03,18.11-26.2,19.54,.08,.14,28.93-17,29.05-16.79,.17,.3-28.15,18.81-27.89,19.26,.66,1.14,29.1-17.64,29.45-17.03,.74,1.28-27.45,19.49-26.94,20.38,.63,1.1,27.54-18.34,28.59-16.52,.03,.05-24.55,19.63-24.55,19.63,.28,.48,25.21-14.57,25.21-14.57,.27,.47-24.56,14.51-24.25,15.06,0,0,23.88-14.53,24.19-13.98,.82,1.41-24.26,13.1-23.6,14.26,.53,.91,22.67-15.1,23.53-13.6,.62,1.07-17.54,14.21-17.12,14.95,0,0,14.7-9.41,15.09-8.73,.34,.59-10.04,8.04-10.04,8.04,.21,.36,6.86-3.97,6.86-3.97"/><path d="M108,1c9.37,0,17,7.63,17,17s-7.63,17-17,17-17-7.63-17-17S98.63,1,108,1m0-1c-9.94,0-18,8.06-18,18h0c0,9.94,8.06,18,18,18s18-8.06,18-18h0c0-9.94-8.06-18-18-18h0Z"/><path class="cls-5" d="M6.33,5.64c.19,.34,6.74-4.18,6.86-3.97,.03,.05-9.36,5.91-9.04,6.46,0,0,11.85-7.72,12.23-7.07,.57,.99-14.82,12.11-14.73,12.27C1.65,13.33,22.02,1.29,22.14,1.49L1.02,17.14S24.98,1.52,25.75,2.85c.06,.1-25.43,14.55-24.74,15.76,0,0,25.71-15.56,26.01-15.04,.41,.71-25.89,16.57-25.89,16.57,.99,1.72,26.89-16.15,27.15-15.69,0,0-27.03,18.11-26.2,19.54,.08,.14,28.93-17,29.05-16.79,.17,.3-28.15,18.81-27.89,19.26,.66,1.14,29.1-17.64,29.45-17.03,.74,1.28-27.45,19.49-26.94,20.38,.63,1.1,27.54-18.34,28.59-16.52,.03,.05-24.55,19.63-24.55,19.63,.28,.48,25.21-14.57,25.21-14.57,.27,.47-24.56,14.51-24.25,15.06,0,0,23.88-14.53,24.19-13.98,.82,1.41-24.26,13.1-23.6,14.26,.53,.91,22.67-15.1,23.53-13.6,.62,1.07-17.54,14.21-17.12,14.95,0,0,14.7-9.41,15.09-8.73,.34,.59-10.04,8.04-10.04,8.04,.21,.36,6.86-3.97,6.86-3.97"/><path d="M18,1c9.37,0,17,7.63,17,17s-7.63,17-17,17S1,27.37,1,18,8.63,1,18,1m0-1C8.06,0,0,8.06,0,18H0C0,27.94,8.06,36,18,36s18-8.06,18-18h0C36,8.06,27.94,0,18,0h0Z"/><path class="cls-1" d="M51.33,50.64c.19,.34,6.74-4.18,6.86-3.97,.03,.05-9.36,5.91-9.04,6.46,0,0,11.85-7.72,12.23-7.07,.57,.99-14.82,12.11-14.73,12.27,0,0,20.37-12.04,20.49-11.84l-21.12,15.65s23.96-15.62,24.73-14.29c.06,.1-25.43,14.55-24.74,15.76,0,0,25.71-15.56,26.01-15.04,.41,.71-25.89,16.57-25.89,16.57,.99,1.72,26.89-16.15,27.15-15.69,0,0-27.03,18.11-26.2,19.54,.08,.14,28.93-17,29.05-16.79,.17,.3-28.15,18.81-27.89,19.26,.66,1.14,29.1-17.64,29.45-17.03,.74,1.28-27.45,19.49-26.94,20.38,.63,1.1,27.54-18.34,28.59-16.52,.03,.05-24.55,19.63-24.55,19.63,.28,.48,25.21-14.57,25.21-14.57,.27,.47-24.56,14.51-24.25,15.06,0,0,23.88-14.53,24.19-13.98,.82,1.41-24.26,13.1-23.6,14.26,.53,.91,22.67-15.1,23.53-13.6,.62,1.07-17.54,14.21-17.12,14.95,0,0,14.7-9.41,15.09-8.73,.34,.59-10.04,8.04-10.04,8.04,.21,.36,6.86-3.97,6.86-3.97"/><path d="M63,46c9.37,0,17,7.63,17,17s-7.63,17-17,17-17-7.63-17-17,7.63-17,17-17m0-1c-9.94,0-18,8.06-18,18h0c0,9.94,8.06,18,18,18s18-8.06,18-18h0c0-9.94-8.06-18-18-18h0Z"/><path class="cls-5" d="M96.33,50.64c.19,.34,6.74-4.18,6.86-3.97,.03,.05-9.36,5.91-9.04,6.46,0,0,11.85-7.72,12.23-7.07,.57,.99-14.82,12.11-14.73,12.27,0,0,20.37-12.04,20.49-11.84l-21.12,15.65s23.96-15.62,24.73-14.29c.06,.1-25.43,14.55-24.74,15.76,0,0,25.71-15.56,26.01-15.04,.41,.71-25.89,16.57-25.89,16.57,.99,1.72,26.89-16.15,27.15-15.69,0,0-27.03,18.11-26.2,19.54,.08,.14,28.93-17,29.05-16.79,.17,.3-28.15,18.81-27.89,19.26,.66,1.14,29.1-17.64,29.45-17.03,.74,1.28-27.45,19.49-26.94,20.38,.63,1.1,27.54-18.34,28.59-16.52,.03,.05-24.55,19.63-24.55,19.63,.28,.48,25.21-14.57,25.21-14.57,.27,.47-24.56,14.51-24.25,15.06,0,0,23.88-14.53,24.19-13.98,.82,1.41-24.26,13.1-23.6,14.26,.53,.91,22.67-15.1,23.53-13.6,.62,1.07-17.54,14.21-17.12,14.95,0,0,14.7-9.41,15.09-8.73,.34,.59-10.04,8.04-10.04,8.04,.21,.36,6.86-3.97,6.86-3.97"/><path d="M108,46c9.37,0,17,7.63,17,17s-7.63,17-17,17-17-7.63-17-17,7.63-17,17-17m0-1c-9.94,0-18,8.06-18,18h0c0,9.94,8.06,18,18,18s18-8.06,18-18h0c0-9.94-8.06-18-18-18h0Z"/><g><circle class="cls-2" cx="18" cy="63" r="17.5"/><path d="M18,46c9.37,0,17,7.63,17,17s-7.63,17-17,17S1,72.37,1,63s7.63-17,17-17m0-1C8.06,45,0,53.06,0,63H0C0,72.94,8.06,81,18,81s18-8.06,18-18h0c0-9.94-8.06-18-18-18h0Z"/></g><path class="cls-3" d="M51.33,95.64c.19,.34,6.74-4.18,6.86-3.97,.03,.05-9.36,5.91-9.04,6.46,0,0,11.85-7.72,12.23-7.07,.57,.99-14.82,12.11-14.73,12.27,0,0,20.37-12.04,20.49-11.84l-21.12,15.65s23.96-15.62,24.73-14.29c.06,.1-25.43,14.55-24.74,15.76,0,0,25.71-15.56,26.01-15.04,.41,.71-25.89,16.57-25.89,16.57,.99,1.72,26.89-16.15,27.15-15.69,0,0-27.03,18.11-26.2,19.54,.08,.14,28.93-17,29.05-16.79,.17,.3-28.15,18.81-27.89,19.26,.66,1.14,29.1-17.64,29.45-17.03,.74,1.28-27.45,19.49-26.94,20.38,.63,1.1,27.54-18.34,28.59-16.52,.03,.05-24.55,19.63-24.55,19.63,.28,.48,25.21-14.57,25.21-14.57,.27,.47-24.56,14.51-24.25,15.06,0,0,23.88-14.53,24.19-13.98,.82,1.41-24.26,13.1-23.6,14.26,.53,.91,22.67-15.1,23.53-13.6,.62,1.07-17.54,14.21-17.12,14.95,0,0,14.7-9.41,15.09-8.73,.34,.59-10.04,8.04-10.04,8.04,.21,.36,6.86-3.97,6.86-3.97"/><path d="M63,91c9.37,0,17,7.63,17,17s-7.63,17-17,17-17-7.63-17-17,7.63-17,17-17m0-1c-9.94,0-18,8.06-18,18h0c0,9.94,8.06,18,18,18s18-8.06,18-18h0c0-9.94-8.06-18-18-18h0Z"/><g><circle class="cls-2" cx="108" cy="108" r="17.5"/><path d="M108,91c9.37,0,17,7.63,17,17s-7.63,17-17,17-17-7.63-17-17,7.63-17,17-17m0-1c-9.94,0-18,8.06-18,18h0c0,9.94,8.06,18,18,18s18-8.06,18-18h0c0-9.94-8.06-18-18-18h0Z"/></g><path class="cls-5" d="M6.33,95.64c.19,.34,6.74-4.18,6.86-3.97,.03,.05-9.36,5.91-9.04,6.46,0,0,11.85-7.72,12.23-7.07,.57,.99-14.82,12.11-14.73,12.27,0,0,20.37-12.04,20.49-11.84L1.02,107.14s23.96-15.62,24.73-14.29c.06,.1-25.43,14.55-24.74,15.76,0,0,25.71-15.56,26.01-15.04,.41,.71-25.89,16.57-25.89,16.57,.99,1.72,26.89-16.15,27.15-15.69,0,0-27.03,18.11-26.2,19.54,.08,.14,28.93-17,29.05-16.79,.17,.3-28.15,18.81-27.89,19.26,.66,1.14,29.1-17.64,29.45-17.03,.74,1.28-27.45,19.49-26.94,20.38,.63,1.1,27.54-18.34,28.59-16.52,.03,.05-24.55,19.63-24.55,19.63,.28,.48,25.21-14.57,25.21-14.57,.27,.47-24.56,14.51-24.25,15.06,0,0,23.88-14.53,24.19-13.98,.82,1.41-24.26,13.1-23.6,14.26,.53,.91,22.67-15.1,23.53-13.6,.62,1.07-17.54,14.21-17.12,14.95,0,0,14.7-9.41,15.09-8.73,.34,.59-10.04,8.04-10.04,8.04,.21,.36,6.86-3.97,6.86-3.97"/><path d="M18,91c9.37,0,17,7.63,17,17s-7.63,17-17,17S1,117.37,1,108s7.63-17,17-17m0-1C8.06,90,0,98.06,0,108H0C0,117.94,8.06,126,18,126s18-8.06,18-18h0c0-9.94-8.06-18-18-18h0Z"/></g></svg>