<?xml version="1.0" encoding="UTF-8"?><svg id="Layer_2" xmlns="http://www.w3.org/2000/svg" viewBox="0 0 307 171.5"><defs><style>.cls-1{fill:#fff;}.cls-2{fill:#e5e9ef;}.cls-3{fill:#737e8b;}.cls-4{fill:#8e99a7;}.cls-5{fill:#c9d0db;}.cls-6{fill:#464e59;}</style></defs><g id="Layer_1-2"><g><path class="cls-6" d="M243.5,81c-4.67,0-9.06-1.82-12.38-5.12-3.3-3.31-5.12-7.71-5.12-12.38s1.82-9.06,5.12-12.38c2.3-2.29,5.17-3.89,8.29-4.64,21.99-5.29,26.78-10.08,32.07-32.07,.74-3.12,2.35-5.99,4.64-8.29,3.31-3.3,7.71-5.12,12.38-5.12s9.06,1.82,12.38,5.12c3.3,3.31,5.12,7.71,5.12,12.38,0,8.14-5.52,15.14-13.42,17.01-21.99,5.29-26.78,10.08-32.07,32.07-1.88,7.9-8.87,13.42-17.01,13.42Z"/><path class="cls-1" d="M288.5,1.5c4.53,0,8.8,1.77,12.02,4.98,3.21,3.22,4.98,7.49,4.98,12.02,0,7.91-5.36,14.7-13.03,16.53-22.24,5.35-27.09,10.2-32.44,32.44-1.82,7.67-8.62,13.03-16.53,13.03-4.53,0-8.8-1.77-12.02-4.98-3.21-3.22-4.98-7.49-4.98-12.02s1.77-8.8,4.98-12.02c2.24-2.23,5.02-3.78,8.06-4.51,22.24-5.35,27.09-10.2,32.44-32.44,.72-3.03,2.28-5.82,4.5-8.05,3.22-3.21,7.49-4.98,12.02-4.98m0-1c-4.97,0-9.47,2.02-12.73,5.27-2.3,2.31-3.99,5.25-4.77,8.53-5.24,21.79-9.91,26.46-31.7,31.7-3.28,.78-6.22,2.47-8.53,4.77-3.25,3.26-5.27,7.76-5.27,12.73s2.02,9.47,5.27,12.73c3.26,3.25,7.76,5.27,12.73,5.27,8.49,0,15.62-5.89,17.5-13.8,5.24-21.79,9.91-26.46,31.7-31.7,7.91-1.88,13.8-9.01,13.8-17.5,0-4.97-2.02-9.47-5.27-12.73-3.26-3.25-7.76-5.27-12.73-5.27h0Z"/></g><g><path class="cls-4" d="M153.5,171c-4.68,0-9.07-1.82-12.38-5.12-2.36-2.36-3.99-5.32-4.71-8.55-.02-.12-.05-.29-.1-.45-3.54-15.37-15.79-27.63-31.19-31.2-.17-.04-.29-.07-.42-.09-3.23-.7-6.21-2.33-8.59-4.71-3.3-3.3-5.12-7.7-5.12-12.38s1.82-9.07,5.12-12.38c2.38-2.38,5.36-4.01,8.62-4.71,.1-.01,.21-.04,.34-.07,15.45-3.58,27.7-15.84,31.24-31.24,.04-.14,.07-.3,.1-.46,.71-3.2,2.34-6.15,4.7-8.52,3.3-3.3,7.7-5.12,12.38-5.12s9.06,1.82,12.38,5.12c3.3,3.31,5.12,7.71,5.12,12.38,0,9.65-7.85,17.5-17.5,17.5-15.16,0-27.5,12.34-27.5,27.5s12.34,27.5,27.5,27.5c4.67,0,9.06,1.82,12.38,5.12,3.3,3.31,5.12,7.71,5.12,12.38,0,9.65-7.85,17.5-17.5,17.5Z"/><path class="cls-1" d="M153.5,46.5c4.53,0,8.8,1.77,12.02,4.98,3.21,3.22,4.98,7.49,4.98,12.02,0,9.37-7.63,17-17,17-15.44,0-28,12.56-28,28s12.56,28,28,28c4.53,0,8.8,1.77,12.02,4.98,3.21,3.22,4.98,7.49,4.98,12.02,0,9.37-7.63,17-17,17-4.54,0-8.81-1.77-12.02-4.98-2.29-2.29-3.86-5.15-4.56-8.28-.02-.16-.06-.33-.1-.49-3.6-15.57-15.98-27.96-31.56-31.58h-.06c-.12-.04-.24-.07-.36-.09-3.15-.69-6.04-2.27-8.35-4.57-3.21-3.21-4.98-7.48-4.98-12.02s1.77-8.81,4.98-12.02c2.31-2.31,5.19-3.89,8.35-4.57,.12-.02,.24-.05,.36-.07h.06c15.58-3.63,27.97-16.02,31.56-31.59,.04-.16,.08-.32,.1-.49,.7-3.13,2.28-5.99,4.56-8.28,3.21-3.21,7.48-4.98,12.02-4.98m0-1c-4.98,0-9.48,2.02-12.73,5.27-2.37,2.37-4.09,5.41-4.84,8.8-.02,.14-.05,.28-.09,.42-3.52,15.28-15.55,27.31-30.82,30.85-.13,.03-.25,.06-.38,.08-3.43,.74-6.49,2.47-8.87,4.85-3.26,3.26-5.27,7.76-5.27,12.73s2.01,9.47,5.27,12.73c2.38,2.38,5.44,4.11,8.87,4.85,.13,.02,.25,.05,.38,.08,15.27,3.54,27.3,15.57,30.82,30.85,.04,.14,.07,.28,.09,.42,.75,3.39,2.47,6.43,4.84,8.8,3.25,3.25,7.75,5.27,12.73,5.27,9.94,0,18-8.06,18-18,0-4.97-2.02-9.47-5.27-12.73-3.26-3.25-7.76-5.27-12.73-5.27-14.92,0-27-12.09-27-27s12.08-27,27-27c9.94,0,18-8.06,18-18,0-4.97-2.02-9.47-5.27-12.73-3.26-3.25-7.76-5.27-12.73-5.27h0Z"/></g><g><path class="cls-5" d="M63.5,81c-9.65,0-17.5-7.85-17.5-17.5,0-3.34,.95-6.59,2.75-9.4l.49-.77h-.03c4.44-7.58,4.44-17.08,0-24.66h.02l-.48-.77c-1.8-2.81-2.75-6.06-2.75-9.4,0-4.67,1.82-9.06,5.12-12.38,3.31-3.3,7.71-5.12,12.38-5.12s9.06,1.82,12.38,5.12c3.3,3.31,5.12,7.71,5.12,12.38,0,3.34-.95,6.59-2.75,9.4l-.49,.77h.03c-4.44,7.58-4.44,17.08,0,24.66h-.02l.48,.77c1.8,2.81,2.75,6.06,2.75,9.4,0,4.67-1.82,9.06-5.12,12.38-3.31,3.3-7.71,5.12-12.38,5.12Z"/><path class="cls-1" d="M63.5,1.5c4.53,0,8.8,1.77,12.02,4.98,3.21,3.22,4.98,7.49,4.98,12.02,0,3.25-.92,6.41-2.67,9.13l-.98,1.54h.08c-3.96,7.35-3.96,16.31,0,23.66h-.09l.99,1.54c1.75,2.72,2.67,5.88,2.67,9.13,0,4.53-1.77,8.8-4.98,12.02-3.22,3.21-7.49,4.98-12.02,4.98-9.37,0-17-7.63-17-17,0-3.25,.92-6.41,2.67-9.13l.98-1.54h-.08c3.96-7.35,3.96-16.31,0-23.66h.09l-.99-1.54c-1.75-2.72-2.67-5.88-2.67-9.13,0-4.53,1.77-8.8,4.98-12.02,3.22-3.21,7.49-4.98,12.02-4.98m0-1c-4.97,0-9.47,2.02-12.73,5.27-3.25,3.26-5.27,7.76-5.27,12.73,0,3.56,1.04,6.88,2.83,9.67h0c4.98,7.83,4.98,17.83,0,25.66h0c-1.79,2.79-2.83,6.11-2.83,9.67,0,9.94,8.06,18,18,18,4.97,0,9.47-2.02,12.73-5.27,3.25-3.26,5.27-7.76,5.27-12.73,0-3.56-1.04-6.88-2.83-9.67h0c-4.98-7.83-4.98-17.83,0-25.66h0c1.79-2.79,2.83-6.11,2.83-9.67,0-4.97-2.02-9.47-5.27-12.73-3.26-3.25-7.76-5.27-12.73-5.27h0Z"/></g><g><circle class="cls-5" cx="198.5" cy="63.5" r="17.5"/><path class="cls-1" d="M198.5,46.5c9.37,0,17,7.63,17,17s-7.63,17-17,17-17-7.63-17-17,7.63-17,17-17m0-1h0c-9.94,0-18,8.06-18,18h0c0,9.94,8.06,18,18,18h0c9.94,0,18-8.06,18-18h0c0-9.94-8.06-18-18-18h0Z"/></g><g><circle class="cls-2" cx="108.5" cy="18.5" r="17.5"/><path class="cls-1" d="M108.5,1.5c9.37,0,17,7.63,17,17s-7.63,17-17,17-17-7.63-17-17S99.13,1.5,108.5,1.5m0-1h0c-9.94,0-18,8.06-18,18h0c0,9.94,8.06,18,18,18h0c9.94,0,18-8.06,18-18h0c0-9.94-8.06-18-18-18h0Z"/></g><g><circle class="cls-6" cx="198.5" cy="18.5" r="17.5"/><path class="cls-1" d="M198.5,1.5c9.37,0,17,7.63,17,17s-7.63,17-17,17-17-7.63-17-17S189.13,1.5,198.5,1.5m0-1h0c-9.94,0-18,8.06-18,18h0c0,9.94,8.06,18,18,18h0c9.94,0,18-8.06,18-18h0c0-9.94-8.06-18-18-18h0Z"/></g><g><circle class="cls-2" cx="198.5" cy="108.5" r="17.5"/><path class="cls-1" d="M198.5,91.5c9.37,0,17,7.63,17,17s-7.63,17-17,17-17-7.63-17-17,7.63-17,17-17m0-1h0c-9.94,0-18,8.06-18,18h0c0,9.94,8.06,18,18,18h0c9.94,0,18-8.06,18-18h0c0-9.94-8.06-18-18-18h0Z"/></g><g><circle class="cls-6" cx="243.5" cy="108.5" r="17.5"/><path class="cls-1" d="M243.5,91.5c9.37,0,17,7.63,17,17s-7.63,17-17,17-17-7.63-17-17,7.63-17,17-17m0-1h0c-9.94,0-18,8.06-18,18h0c0,9.94,8.06,18,18,18h0c9.94,0,18-8.06,18-18h0c0-9.94-8.06-18-18-18h0Z"/></g><g><circle class="cls-6" cx="153.5" cy="18.5" r="17.5"/><path class="cls-1" d="M153.5,1.5c9.37,0,17,7.63,17,17s-7.63,17-17,17-17-7.63-17-17S144.13,1.5,153.5,1.5m0-1h0c-9.94,0-18,8.06-18,18h0c0,9.94,8.06,18,18,18h0c9.94,0,18-8.06,18-18h0c0-9.94-8.06-18-18-18h0Z"/></g><g><path class="cls-4" d="M288.5,78c-9.65,0-17.5-7.85-17.5-17.5,0-4.67,1.82-9.06,5.12-12.38,3.31-3.3,7.71-5.12,12.38-5.12s9.06,1.82,12.38,5.12c3.3,3.31,5.12,7.71,5.12,12.38s-1.82,9.06-5.12,12.38c-3.31,3.3-7.71,5.12-12.38,5.12Zm0-30c-6.89,0-12.5,5.61-12.5,12.5s5.61,12.5,12.5,12.5,12.5-5.61,12.5-12.5-5.61-12.5-12.5-12.5Z"/><path class="cls-1" d="M288.5,43.5c4.53,0,8.8,1.77,12.02,4.98,3.21,3.22,4.98,7.49,4.98,12.02s-1.77,8.8-4.98,12.02c-3.22,3.21-7.49,4.98-12.02,4.98-9.37,0-17-7.63-17-17,0-4.53,1.77-8.8,4.98-12.02,3.22-3.21,7.49-4.98,12.02-4.98m0,30c7.17,0,13-5.83,13-13s-5.83-13-13-13-13,5.83-13,13,5.83,13,13,13m0-31c-4.97,0-9.47,2.02-12.73,5.27-3.25,3.26-5.27,7.76-5.27,12.73,0,9.94,8.06,18,18,18,4.97,0,9.47-2.02,12.73-5.27,3.25-3.26,5.27-7.76,5.27-12.73s-2.02-9.47-5.27-12.73c-3.26-3.25-7.76-5.27-12.73-5.27h0Zm0,30c-6.62,0-12-5.38-12-12s5.38-12,12-12,12,5.38,12,12-5.38,12-12,12h0Z"/></g><g><path class="cls-2" d="M153.5,126c-9.65,0-17.5-7.85-17.5-17.5,0-4.67,1.82-9.06,5.12-12.38,3.31-3.3,7.71-5.12,12.38-5.12s9.06,1.82,12.38,5.12c3.3,3.31,5.12,7.71,5.12,12.38s-1.82,9.06-5.12,12.38c-3.31,3.3-7.71,5.12-12.38,5.12Zm0-30c-6.89,0-12.5,5.61-12.5,12.5s5.61,12.5,12.5,12.5,12.5-5.61,12.5-12.5-5.61-12.5-12.5-12.5Z"/><path class="cls-1" d="M153.5,91.5c4.53,0,8.8,1.77,12.02,4.98,3.21,3.22,4.98,7.49,4.98,12.02s-1.77,8.8-4.98,12.02c-3.22,3.21-7.49,4.98-12.02,4.98-9.37,0-17-7.63-17-17,0-4.53,1.77-8.8,4.98-12.02,3.22-3.21,7.49-4.98,12.02-4.98m0,30c7.17,0,13-5.83,13-13s-5.83-13-13-13-13,5.83-13,13,5.83,13,13,13m0-31c-4.97,0-9.47,2.02-12.73,5.27-3.25,3.26-5.27,7.76-5.27,12.73,0,9.94,8.06,18,18,18,4.97,0,9.47-2.02,12.73-5.27,3.25-3.26,5.27-7.76,5.27-12.73s-2.02-9.47-5.27-12.73c-3.26-3.25-7.76-5.27-12.73-5.27h0Zm0,30c-6.62,0-12-5.38-12-12s5.38-12,12-12,12,5.38,12,12-5.38,12-12,12h0Z"/></g><g><path class="cls-2" d="M108.5,81c-9.65,0-17.5-7.85-17.5-17.5,0-4.67,1.82-9.06,5.12-12.38,3.31-3.3,7.71-5.12,12.38-5.12s9.06,1.82,12.38,5.12c3.3,3.31,5.12,7.71,5.12,12.38s-1.82,9.06-5.12,12.38c-3.31,3.3-7.71,5.12-12.38,5.12Zm0-30c-6.89,0-12.5,5.61-12.5,12.5s5.61,12.5,12.5,12.5,12.5-5.61,12.5-12.5-5.61-12.5-12.5-12.5Z"/><path class="cls-1" d="M108.5,46.5c4.53,0,8.8,1.77,12.02,4.98,3.21,3.22,4.98,7.49,4.98,12.02s-1.77,8.8-4.98,12.02c-3.22,3.21-7.49,4.98-12.02,4.98-9.37,0-17-7.63-17-17,0-4.53,1.77-8.8,4.98-12.02,3.22-3.21,7.49-4.98,12.02-4.98m0,30c7.17,0,13-5.83,13-13s-5.83-13-13-13-13,5.83-13,13,5.83,13,13,13m0-31c-4.97,0-9.47,2.02-12.73,5.27-3.25,3.26-5.27,7.76-5.27,12.73,0,9.94,8.06,18,18,18,4.97,0,9.47-2.02,12.73-5.27,3.25-3.26,5.27-7.76,5.27-12.73s-2.02-9.47-5.27-12.73c-3.26-3.25-7.76-5.27-12.73-5.27h0Zm0,30c-6.62,0-12-5.38-12-12s5.38-12,12-12,12,5.38,12,12-5.38,12-12,12h0Z"/></g><g><path class="cls-3" d="M243.5,36c-9.65,0-17.5-7.85-17.5-17.5,0-4.67,1.82-9.06,5.12-12.38,3.31-3.3,7.71-5.12,12.38-5.12s9.06,1.82,12.38,5.12c3.3,3.31,5.12,7.71,5.12,12.38s-1.82,9.06-5.12,12.38c-3.31,3.3-7.71,5.12-12.38,5.12Zm0-30c-6.89,0-12.5,5.61-12.5,12.5s5.61,12.5,12.5,12.5,12.5-5.61,12.5-12.5-5.61-12.5-12.5-12.5Z"/><path class="cls-1" d="M243.5,1.5c4.53,0,8.8,1.77,12.02,4.98,3.21,3.22,4.98,7.49,4.98,12.02s-1.77,8.8-4.98,12.02c-3.22,3.21-7.49,4.98-12.02,4.98-9.37,0-17-7.63-17-17,0-4.53,1.77-8.8,4.98-12.02,3.22-3.21,7.49-4.98,12.02-4.98m0,30c7.17,0,13-5.83,13-13s-5.83-13-13-13-13,5.83-13,13,5.83,13,13,13m0-31c-4.97,0-9.47,2.02-12.73,5.27-3.25,3.26-5.27,7.76-5.27,12.73,0,9.94,8.06,18,18,18,4.97,0,9.47-2.02,12.73-5.27,3.25-3.26,5.27-7.76,5.27-12.73s-2.02-9.47-5.27-12.73c-3.26-3.25-7.76-5.27-12.73-5.27h0Zm0,30c-6.62,0-12-5.38-12-12s5.38-12,12-12,12,5.38,12,12-5.38,12-12,12h0Z"/></g><g><path class="cls-3" d="M18.5,36C8.85,36,1,28.15,1,18.5c0-4.67,1.82-9.06,5.12-12.38C9.44,2.82,13.83,1,18.5,1s9.06,1.82,12.38,5.12c3.3,3.31,5.12,7.71,5.12,12.38s-1.82,9.06-5.12,12.38c-3.31,3.3-7.71,5.12-12.38,5.12Zm0-30c-6.89,0-12.5,5.61-12.5,12.5s5.61,12.5,12.5,12.5,12.5-5.61,12.5-12.5-5.61-12.5-12.5-12.5Z"/><path class="cls-1" d="M18.5,1.5c4.53,0,8.8,1.77,12.02,4.98,3.21,3.22,4.98,7.49,4.98,12.02s-1.77,8.8-4.98,12.02c-3.22,3.21-7.49,4.98-12.02,4.98C9.13,35.5,1.5,27.87,1.5,18.5c0-4.53,1.77-8.8,4.98-12.02C9.7,3.27,13.97,1.5,18.5,1.5m0,30c7.17,0,13-5.83,13-13s-5.83-13-13-13S5.5,11.33,5.5,18.5s5.83,13,13,13M18.5,.5C13.53,.5,9.03,2.52,5.77,5.77,2.52,9.03,.5,13.53,.5,18.5c0,9.94,8.06,18,18,18,4.97,0,9.47-2.02,12.73-5.27,3.25-3.26,5.27-7.76,5.27-12.73s-2.02-9.47-5.27-12.73C27.97,2.52,23.47,.5,18.5,.5h0Zm0,30c-6.62,0-12-5.38-12-12S11.88,6.5,18.5,6.5s12,5.38,12,12-5.38,12-12,12h0Z"/></g></g></svg>