<?xml version="1.0" encoding="UTF-8"?><svg id="Layer_2" xmlns="http://www.w3.org/2000/svg" viewBox="0 0 127.66 126"><defs><style>.cls-1{fill:#fff;}.cls-2{opacity:.8;}.cls-3{opacity:.71;}</style></defs><g id="Layer_1-2"><g class="cls-2"><rect class="cls-1" x="0" y="0" width="36" height="36" rx="18" ry="18"/></g><g class="cls-2"><rect class="cls-1" x="90" y="0" width="36" height="36" rx="18" ry="18"/></g><g class="cls-2"><rect class="cls-1" x="45" y="45" width="36" height="36" rx="18" ry="18"/></g><g class="cls-2"><rect class="cls-1" x="0" y="90" width="36" height="36" rx="18" ry="18"/></g><g class="cls-2"><rect class="cls-1" x="90" y="90" width="36" height="36" rx="18" ry="18"/></g><g class="cls-3"><path class="cls-1" d="M127.66,63c0,.27-.01,.53-.02,.79s-.03,.52-.05,.78c-.01,.18-.03,.35-.05,.52-.02,.2-.05,.39-.08,.59-.03,.18-.06,.36-.09,.53-.04,.22-.08,.44-.13,.65-.04,.22-.09,.43-.15,.64-.07,.28-.15,.56-.23,.83-.36,1.14-.82,2.22-1.38,3.25-.13,.26-.28,.51-.43,.75-.27,.45-.56,.89-.87,1.31-.21,.29-.44,.58-.66,.85-.16,.19-.31,.37-.48,.55-.21,.24-.43,.47-.65,.69-.47,.47-.97,.91-1.49,1.32-.15,.13-.31,.26-.47,.37-.23,.18-.47,.34-.71,.5-.21,.15-.44,.29-.66,.42-.27,.18-.54,.33-.82,.48-.25,.14-.51,.27-.77,.4-.97,.47-1.99,.85-3.04,1.13-.19,.06-.38,.1-.57,.15s-.38,.09-.58,.14c-21.29,5.19-25.93,9.97-31.12,31.56-1.88,7.91-9.01,13.8-17.5,13.8-4.97,0-9.47-2.02-12.73-5.27-3.25-3.26-5.27-7.76-5.27-12.73s2.02-9.47,5.27-12.73c2.31-2.3,5.25-3.99,8.53-4.77,2.25-.54,4.31-1.07,6.21-1.62,6.06-.58,11.5-3.29,15.57-7.36,2.99-2.99,5.24-6.71,6.45-10.88,.67-2.27,1.03-4.68,1.03-7.17,0-7.05-2.86-13.43-7.48-18.05s-11-7.47-18.05-7.47c-2.53,0-4.98,.37-7.28,1.06-4.12,1.21-7.81,3.45-10.77,6.41-4.07,4.07-6.78,9.51-7.36,15.57-.55,1.9-1.08,3.96-1.62,6.21-1.88,7.91-9.01,13.8-17.5,13.8-4.97,0-9.47-2.02-12.73-5.27-3.25-3.26-5.27-7.76-5.27-12.73s2.02-9.47,5.27-12.73c2.31-2.3,5.25-3.99,8.53-4.77,21.59-5.19,26.37-9.83,31.56-31.12,.05-.19,.09-.38,.14-.58s.1-.41,.16-.61c.11-.41,.23-.81,.37-1.2,.07-.18,.14-.36,.2-.54,.16-.4,.33-.8,.52-1.18,.09-.19,.18-.38,.28-.56,.1-.21,.22-.42,.35-.63,.15-.29,.32-.57,.51-.84,.27-.45,.58-.87,.91-1.29,.17-.23,.35-.45,.54-.67,.05-.07,.11-.13,.18-.2,.23-.28,.49-.55,.75-.81,3.26-3.25,7.76-5.27,12.73-5.27s9.47,2.02,12.73,5.27c.26,.26,.52,.53,.75,.81,.07,.07,.13,.13,.18,.2,.19,.22,.37,.44,.54,.67,.33,.41,.64,.85,.91,1.29,.19,.27,.36,.55,.51,.84,.14,.21,.25,.42,.35,.63,.1,.18,.19,.37,.28,.56,.19,.39,.36,.78,.52,1.18,.06,.18,.13,.36,.2,.54,.14,.39,.26,.79,.37,1.2,.06,.2,.11,.41,.16,.61,.05,.19,.09,.38,.14,.58,5.14,21.1,9.88,25.84,30.98,30.98,.19,.05,.38,.09,.58,.14s.41,.1,.61,.16c.41,.11,.81,.23,1.2,.37,.18,.07,.36,.14,.54,.2,.4,.16,.8,.33,1.18,.52,.19,.09,.38,.18,.56,.28,.21,.1,.42,.22,.63,.35,.29,.15,.57,.32,.84,.51,.45,.27,.87,.58,1.29,.91,.23,.17,.45,.35,.67,.54,.07,.05,.13,.11,.2,.18,.28,.23,.55,.49,.81,.75,3.25,3.26,5.27,7.76,5.27,12.73Z"/></g></g></svg>