<?xml version="1.0" encoding="UTF-8"?><svg id="Layer_2" xmlns="http://www.w3.org/2000/svg" viewBox="0 0 126.29 126.07"><g id="Layer_1-2"><path d="M63.18,2c1.11,0,2.2,.19,3.12,.37,.74,.15,1.5,.47,2.3,.81,.21,.09,.42,.18,.63,.27,.41,.17,.81,.31,1.19,.44,.66,.23,1.28,.45,1.72,.74,.54,.36,1.05,.9,1.59,1.47,.23,.24,.45,.48,.68,.71,.28,.28,.57,.45,.8,.58,.07,.27,.19,.59,.42,.91l.02,.03,.03,.03c.2,.25,.4,.45,.58,.63,.12,.12,.28,.28,.32,.35l.03,.05,.04,.05c.11,.16,.23,.35,.36,.61l.05,.1,.06,.09c.04,.05,.07,.11,.11,.16,.02,.25,.08,.56,.23,.88,.16,.33,.3,.65,.44,1,.11,.29,.26,.51,.4,.68l.02,.12c.04,.24,.08,.47,.15,.71v.03l.02,.03c.04,.15,.1,.28,.14,.39,0,.19,0,.44,.07,.71,.19,.78,.46,1.5,.69,2.13,.18,.49,.36,.96,.47,1.39,.24,.9,.51,1.74,.76,2.55,.11,.34,.22,.68,.32,1.02,.36,1.16,.75,2.33,1.2,3.57l.06,.16c.43,1.19,.84,2.31,1.34,3.39,.63,1.36,1.2,2.46,1.79,3.44,.2,.32,.38,.65,.56,.98,.44,.8,.9,1.63,1.55,2.39,.68,.81,1.48,1.42,2.19,1.96,.28,.22,.57,.43,.84,.66,.27,.23,.54,.48,.81,.73,.63,.59,1.35,1.26,2.25,1.81,.85,.52,1.76,.92,2.64,1.31,.29,.13,.58,.26,.87,.39,.76,.35,1.54,.6,2.3,.83,.43,.13,.86,.27,1.3,.43,.39,.14,.79,.31,1.22,.5,.68,.29,1.45,.62,2.29,.87,.7,.21,1.4,.36,2.08,.5,.54,.11,1.05,.21,1.55,.35,.41,.11,.83,.23,1.25,.35,.67,.19,1.36,.38,2.05,.56,.18,.12,.45,.27,.8,.36,.24,.06,.45,.08,.59,.09h.02c.06,.03,.16,.08,.24,.12,.19,.1,.43,.22,.7,.32,.15,.06,.31,.11,.46,.16l.11,.04c.12,.05,.25,.09,.37,.14,.23,.08,.44,.16,.64,.26,.13,.06,.27,.12,.4,.16,.12,.12,.3,.28,.54,.43l.07,.04,.07,.04,.2,.1c.17,.08,.32,.16,.42,.23l.06,.04,.06,.04c.19,.12,.4,.29,.65,.49,.13,.11,.26,.21,.39,.32l.02,.02,.02,.02c.29,.21,.58,.33,.82,.4h.01l.07,.07c.06,.06,.11,.13,.17,.2,.12,.14,.26,.32,.44,.5,.79,.79,1.45,1.73,1.93,2.45,.51,.76,.96,1.64,1.43,2.76,.1,.23,.19,.46,.29,.69,.34,.78,.66,1.52,.8,2.24,.23,1.14,.34,2.17,.34,3.13,0,.2,.02,.39,.04,.58,0,.05,.01,.11,.01,.14,0,.06,0,.13,0,.19-.15,.24-.29,.56-.34,.97-.03,.27,0,.5,0,.65,0,.08-.02,.16-.02,.24,0,.04,0,.07,0,.09-.05,.27-.05,.52-.03,.72-.05,.11-.1,.24-.14,.39v.03l-.02,.03c-.03,.12-.06,.23-.08,.35-.03,.14-.06,.27-.09,.37-.29,.92-.67,1.83-1.14,2.72-.18,.15-.44,.38-.68,.76-.15,.25-.35,.51-.56,.79l-.25,.34c-.08,.11-.15,.21-.23,.32-.11,.16-.22,.31-.31,.43-.22,.26-.35,.51-.43,.7-.02,.02-.05,.04-.07,.05-.16,.13-.32,.26-.46,.4-.47,.47-.87,.85-1.29,1.18l-.04,.03-.04,.03c-.21,.18-.36,.38-.47,.54-.09,.07-.18,.14-.27,.21-.2,.05-.49,.14-.8,.32l-.05,.03-.05,.03c-.27,.18-.46,.3-.68,.41-.35,.19-.59,.43-.75,.59-.48,.2-1.07,.34-1.69,.49-.3,.07-.61,.14-.91,.22h-.03c-.13,.02-.32,.04-.55,.1-.41,.11-.71,.31-.93,.5-.37,.07-.76,.12-1.17,.18-.68,.09-1.38,.19-2.09,.38-.81,.22-1.56,.52-2.21,.79-.48,.19-.93,.38-1.35,.5-.34,.11-.68,.21-1.02,.31-.91,.27-1.76,.52-2.62,.84-.37,.14-.74,.26-1.1,.39-.84,.29-1.7,.59-2.53,.97-.96,.45-1.8,1-2.54,1.49-.28,.19-.56,.37-.84,.54-1.21,.75-2.28,1.44-3.28,2.29-1.08,.93-1.96,2.01-2.73,2.96-.93,1.14-1.66,2.17-2.3,3.25-.71,1.2-1.3,2.34-1.81,3.47-.41,.92-.74,1.85-1.08,2.84l-.27,.76c-.14,.39-.34,.82-.55,1.26-.31,.66-.66,1.42-.91,2.26-.36,1.2-.7,2.5-1,3.64-.11,.42-.23,.85-.35,1.29-.21,.75-.42,1.52-.62,2.34l-.13,.54c-.2,.87-.39,1.68-.7,2.37-.39,.86-.97,1.68-1.61,2.57-.23,.32-.44,.65-.66,.99-.37,.58-.73,1.14-1.12,1.51-.48,.46-1.12,.86-1.81,1.28-.24,.15-.49,.3-.73,.45-.23,.15-.46,.3-.68,.45-.67,.45-1.31,.88-1.94,1.13-.54,.22-1.23,.33-1.96,.44-.35,.05-.69,.11-1.03,.18-1.08,.21-2.05,.38-3.02,.38-1.28,0-2.27-.08-3.13-.25-.81-.16-1.62-.5-2.49-.87l-.46-.19c-.96-.4-1.86-.98-2.7-1.54-.23-.15-.46-.3-.69-.45-.7-.45-1.36-.88-1.85-1.37-.76-.77-1.41-1.68-1.94-2.47-.71-1.07-1.18-1.91-1.53-2.74-.41-1-.66-2.08-.84-3.01-.19-.96-.28-1.97-.28-3.11,0-1.03,.1-2.04,.31-3.11l.11-.59c.17-.9,.33-1.75,.63-2.45,.51-1.23,.95-2.09,1.43-2.82,.53-.8,1.22-1.62,2.02-2.43,.58-.58,1.32-1.09,2.11-1.62l.23-.16,.39-.27c.73-.5,1.41-.98,2.1-1.29,.52-.23,1.17-.36,1.87-.51,.33-.07,.65-.13,.98-.21,.7-.17,1.33-.41,1.89-.62,.43-.16,.84-.32,1.2-.41,1.01-.26,1.97-.54,2.89-.81l.08-.02c.24-.02,.48-.04,.71-.06,.93-.07,1.89-.14,2.87-.38,1-.24,1.89-.61,2.75-.96,.27-.11,.54-.22,.81-.33,.34-.13,.7-.25,1.09-.37,.76-.25,1.63-.52,2.46-.99,.96-.54,1.79-1.18,2.6-1.8l.5-.39c.83-.63,1.51-1.33,2.16-2,.19-.2,.38-.4,.58-.59,.23-.23,.51-.47,.81-.72,.54-.46,1.16-.98,1.69-1.66,.53-.68,.9-1.41,1.22-2.05,.17-.34,.33-.66,.5-.94,.17-.28,.38-.58,.6-.89,.42-.58,.89-1.25,1.23-2.04,.4-.92,.75-1.93,1.14-3.26,.38-1.3,.58-2.66,.75-3.86,.2-1.4,.3-2.67,.3-3.91,0-.96-.14-1.84-.27-2.69-.05-.29-.09-.59-.13-.88l-.07-.53c-.12-.98-.25-1.99-.52-3.01-.28-1.06-.66-2.14-1.18-3.4-.48-1.16-1.08-2.19-1.66-3.19-.11-.2-.23-.39-.34-.59-.46-.81-.94-1.66-1.56-2.47-.58-.75-1.22-1.36-1.83-1.94-.22-.21-.45-.42-.67-.64-.89-.89-1.77-1.67-2.68-2.37l-.49-.38c-.75-.59-1.53-1.19-2.43-1.71-.95-.55-2.01-1.07-3.23-1.57-.9-.37-2.1-.85-3.39-1.19-.23-.06-.45-.12-.68-.19-.9-.25-1.82-.51-2.84-.64-1.27-.16-2.53-.19-3.61-.19-1.39,0-2.73,.09-3.98,.27-1.03,.15-1.97,.48-2.8,.76-.34,.12-.69,.24-1.02,.34-.32,.09-.67,.16-1.05,.24-.69,.14-1.48,.29-2.26,.63-.79,.34-1.44,.82-2.01,1.24-.31,.23-.6,.44-.88,.61-.28,.17-.6,.33-.94,.5-.64,.32-1.36,.67-2.03,1.2-.87,.68-1.62,1.43-2.35,2.16l-.16,.16-.41,.41c-.74,.73-1.5,1.48-2.17,2.37-.6,.79-1.02,1.61-1.44,2.4-.15,.3-.31,.59-.47,.88-.58,1.02-.98,2.07-1.38,3.09l-.14,.37c-.09,.22-.17,.44-.26,.66-.37,.91-.75,1.85-1,2.9-.25,1.04-.43,2.17-.57,3.54-.1,.33-.23,.67-.36,1.04-.22,.6-.44,1.22-.62,1.91-.15,.59-.27,1.19-.38,1.77-.09,.46-.18,.94-.3,1.42l-.09,.38c-.22,.93-.43,1.82-.76,2.55-.24,.53-.66,1.08-1.1,1.65-.22,.28-.44,.57-.64,.86l-.15,.21c-.57,.81-1.12,1.57-1.74,2.17-.79,.75-1.53,1.46-2.33,1.98-.86,.56-1.88,.99-2.75,1.34-1.01,.41-1.99,.7-2.92,.88l-.11,.02c-1.03,.2-2,.39-2.94,.39-.55,0-1.19-.17-1.86-.34-.39-.1-.8-.21-1.23-.3-1.26-.25-2.18-.51-2.99-.85-1.2-.5-2.05-.93-2.78-1.42-.25-.16-.5-.33-.75-.49-.69-.44-1.35-.86-1.83-1.34-.56-.56-1.05-1.3-1.56-2.08l-.31-.47-.19-.29c-.56-.83-1.09-1.62-1.42-2.43-.2-.49-.29-1.13-.39-1.82-.06-.41-.12-.84-.2-1.28-.09-.45-.2-.88-.32-1.29-.18-.65-.35-1.27-.35-1.8,0-.83,.18-1.71,.37-2.64l.1-.49c.23-1.14,.52-2.13,.88-3.02,.37-.89,.89-1.73,1.55-2.73l.04-.06c.61-.91,1.19-1.77,1.86-2.45,.39-.38,.93-.73,1.51-1.09,.3-.19,.61-.38,.9-.59,.73-.5,1.54-.94,2.54-1.39l.15-.07c.88-.39,1.72-.77,2.57-.97,.77-.19,1.5-.4,2.2-.61,.48-.14,.95-.28,1.41-.4,1.5-.4,2.62-.71,3.63-1.01,1.21-.36,2.4-.75,3.62-1.18,.4-.14,.79-.27,1.18-.4,.81-.27,1.66-.55,2.46-.9l.16-.07c1.14-.51,2.32-1.03,3.39-1.66,1.18-.69,2.29-1.47,3.31-2.3,.88-.72,1.55-1.53,2.2-2.31,.19-.22,.37-.45,.56-.67,.76-.88,1.35-1.84,1.91-2.77l.33-.54c.69-1.11,1.29-2.24,1.86-3.45,.16-.35,.38-.73,.6-1.13,.38-.68,.82-1.44,1.14-2.33,.44-1.2,.85-2.5,1.19-3.63,.22-.71,.35-1.42,.48-2.11,.1-.55,.2-1.07,.33-1.58,.12-.44,.29-.92,.47-1.42,.24-.68,.49-1.37,.67-2.12,.01-.04,.03-.08,.04-.11,.06-.16,.11-.31,.15-.48,.1-.41,.07-.78,.02-1.06,.02-.08,.04-.15,.06-.22,.2-.19,.41-.46,.55-.84,.11-.28,.18-.54,.23-.74,.03-.11,.07-.26,.1-.33,.02-.05,.06-.09,.08-.14,.06-.1,.12-.19,.17-.29l.03-.05,.03-.06c.04-.09,.13-.23,.22-.37l.04-.06,.04-.07,.02-.03s.07-.09,.11-.13c.13-.15,.25-.3,.37-.46l.04-.06,.04-.06c.18-.3,.3-.59,.41-.82,.06-.14,.14-.33,.18-.39l.02-.02,.02-.02c.08-.11,.17-.22,.25-.33,.1-.07,.22-.16,.33-.27l.07-.07,.06-.08c.08-.1,.16-.2,.24-.3,.12-.16,.24-.31,.33-.4,.71-.71,1.62-1.34,2.49-1.92,.88-.59,1.91-1.04,2.79-1.41,.96-.4,2.01-.64,2.99-.83,.32-.06,.65-.14,.97-.21,.75-.17,1.46-.34,2.11-.34m0-2c-1.2,0-2.34,.36-3.48,.59-1.17,.23-2.29,.5-3.37,.95-1.1,.45-2.16,.94-3.13,1.6-.98,.66-1.96,1.34-2.79,2.17-.26,.26-.48,.57-.71,.85-.07,.07-.19,.08-.24,.15-.19,.22-.36,.45-.53,.68-.33,.42-.46,.96-.73,1.41-.19,.27-.45,.49-.6,.78-.13,.21-.26,.41-.36,.62-.1,.18-.22,.35-.31,.54-.19,.38-.24,.83-.4,1.23-.06,.18-.37,.27-.44,.45-.14,.39-.24,.81-.35,1.22-.06,.2,.14,.47,.09,.67-.05,.2-.13,.38-.18,.57-.31,1.25-.84,2.39-1.14,3.53-.34,1.25-.45,2.5-.79,3.63-.38,1.24-.75,2.42-1.16,3.52-.45,1.22-1.19,2.24-1.68,3.31-.55,1.17-1.12,2.24-1.74,3.24-.67,1.08-1.27,2.14-2.06,3.05-.81,.94-1.55,1.95-2.51,2.74-.93,.76-1.96,1.48-3.06,2.13-1.02,.6-2.16,1.1-3.34,1.63-1.07,.48-2.27,.81-3.49,1.25-1.11,.39-2.27,.78-3.52,1.15-1.13,.34-2.32,.66-3.57,.99-1.14,.3-2.32,.7-3.57,1-1.08,.26-2.07,.71-3.06,1.15-1.01,.45-1.96,.95-2.86,1.57-.91,.62-1.91,1.13-2.69,1.91-.83,.83-1.49,1.83-2.15,2.81-.65,.97-1.28,1.98-1.74,3.08-.45,1.08-.77,2.22-1,3.39-.23,1.14-.51,2.32-.51,3.52s.48,2.34,.7,3.48c.23,1.17,.26,2.4,.7,3.47,.45,1.1,1.15,2.08,1.8,3.06,.66,.98,1.29,2.02,2.12,2.85,.83,.83,1.9,1.42,2.88,2.07,.97,.65,2.03,1.15,3.13,1.61,1.08,.45,2.2,.73,3.37,.96,1.14,.23,2.28,.68,3.48,.68s2.32-.23,3.43-.44c1.14-.22,2.24-.57,3.29-.99,1.07-.43,2.13-.9,3.09-1.52,.96-.62,1.81-1.43,2.63-2.22,.83-.79,1.47-1.73,2.14-2.67,.66-.93,1.46-1.79,1.94-2.84,.47-1.03,.71-2.18,.98-3.3,.26-1.08,.41-2.15,.67-3.14,.28-1.08,.72-2.07,1.01-3.06,.11-1.18,.27-2.34,.54-3.47,.27-1.15,.75-2.21,1.18-3.3,.43-1.1,.83-2.19,1.4-3.2,.58-1.02,1.05-2.12,1.76-3.05,.71-.93,1.58-1.75,2.41-2.58,.75-.75,1.49-1.51,2.33-2.16,.83-.65,1.86-1.01,2.77-1.55,.9-.54,1.7-1.3,2.67-1.73,.96-.42,2.06-.49,3.08-.79,1.16-.35,2.31-.86,3.54-1.04,1.2-.17,2.44-.25,3.69-.25,1.13,0,2.26,.03,3.35,.17,1.12,.15,2.19,.49,3.26,.78,1.08,.29,2.12,.68,3.15,1.11,1.03,.43,2.04,.9,3,1.46,.97,.56,1.82,1.27,2.7,1.95,.88,.68,1.7,1.41,2.49,2.2s1.65,1.5,2.33,2.39c.68,.88,1.19,1.87,1.75,2.84,.56,.96,1.11,1.92,1.54,2.95,.42,1.02,.81,2.07,1.1,3.15,.29,1.07,.39,2.17,.54,3.29,.14,1.09,.38,2.19,.38,3.32,0,1.23-.11,2.44-.28,3.63-.17,1.21-.35,2.43-.69,3.58-.3,1.03-.63,2.06-1.05,3.03-.43,.98-1.18,1.8-1.72,2.71-.55,.92-.93,1.95-1.58,2.79-.65,.84-1.58,1.44-2.33,2.2-.83,.83-1.6,1.71-2.53,2.42-.93,.71-1.85,1.46-2.87,2.03-1.02,.57-2.19,.81-3.29,1.24-1.08,.42-2.14,.93-3.29,1.21-1.13,.27-2.31,.29-3.49,.41-.99,.29-2.02,.59-3.1,.87-1,.26-1.97,.77-3.05,1.03-1.08,.26-2.2,.39-3.2,.84-1.01,.45-1.91,1.12-2.82,1.74-.91,.62-1.84,1.24-2.62,2.02-.83,.83-1.62,1.75-2.28,2.73-.65,.97-1.16,2.07-1.62,3.16-.45,1.08-.62,2.26-.86,3.43-.23,1.14-.35,2.29-.35,3.49s.09,2.36,.32,3.5c.23,1.17,.51,2.31,.96,3.39,.45,1.1,1.06,2.11,1.71,3.08,.66,.98,1.35,1.94,2.18,2.77,.83,.83,1.86,1.41,2.85,2.07,.97,.65,1.95,1.27,3.05,1.73,1.08,.45,2.16,.94,3.33,1.18,1.14,.23,2.32,.29,3.52,.29s2.29-.2,3.4-.41c1.14-.22,2.32-.3,3.37-.73,1.07-.43,2.01-1.14,2.96-1.76,.96-.62,2-1.18,2.83-1.97,.83-.79,1.36-1.85,2.02-2.79,.66-.93,1.32-1.86,1.8-2.91,.47-1.03,.68-2.15,.95-3.28,.3-1.25,.66-2.44,.96-3.58,.33-1.25,.65-2.45,.98-3.58,.37-1.24,1.04-2.32,1.43-3.43,.44-1.23,.81-2.39,1.29-3.46,.53-1.18,1.1-2.26,1.7-3.27,.65-1.1,1.36-2.07,2.12-3,.79-.96,1.56-1.9,2.49-2.71,.91-.79,1.94-1.44,3.02-2.11,1-.62,1.99-1.37,3.17-1.92,1.06-.49,2.25-.85,3.47-1.3,1.1-.4,2.29-.73,3.53-1.11,1.13-.35,2.24-.94,3.49-1.27,1.14-.31,2.41-.34,3.66-.64,.2-.05,.32-.36,.51-.41,.19-.05,.39-.04,.58-.1,1.05-.28,2.16-.45,3.13-.92,.26-.13,.44-.43,.69-.57,.28-.15,.54-.31,.81-.49,.22-.13,.54-.13,.75-.28,.24-.16,.47-.35,.7-.53,.16-.11,.24-.35,.39-.48,.52-.41,.99-.87,1.46-1.34,.22-.22,.5-.39,.71-.63,.17-.18,.2-.46,.36-.65,.22-.27,.42-.57,.63-.86,.31-.42,.64-.82,.91-1.27,.15-.24,.49-.38,.62-.64,.56-1.03,1.03-2.12,1.39-3.26,.08-.27,.14-.56,.21-.84,.06-.21,.22-.4,.26-.62,.05-.21-.08-.47-.04-.69,.03-.17,.03-.35,.06-.53,.03-.2-.04-.4-.02-.6,.02-.17,.3-.32,.31-.5,.02-.26,.04-.52,.05-.78s-.05-.52-.05-.79c0-1.2-.15-2.38-.38-3.52-.23-1.17-.76-2.23-1.21-3.31-.45-1.1-.96-2.13-1.61-3.11-.66-.98-1.35-1.92-2.18-2.75-.26-.26-.46-.59-.74-.82-.07-.07-.09-.18-.16-.23-.22-.19-.61-.15-.84-.32-.42-.33-.8-.68-1.25-.95-.27-.19-.56-.32-.85-.47-.21-.13-.35-.37-.56-.47-.18-.1-.39-.15-.58-.24-.38-.19-.79-.32-1.19-.48-.18-.06-.37-.11-.55-.18-.39-.14-.74-.4-1.15-.51-.2-.06-.43-.04-.63-.09-.2-.05-.35-.24-.54-.29-1.24-.3-2.4-.66-3.53-.96-1.23-.33-2.45-.49-3.57-.83-1.23-.37-2.32-.93-3.41-1.33-1.21-.44-2.4-.72-3.45-1.2-1.16-.53-2.31-.98-3.31-1.59-1.08-.65-1.89-1.59-2.8-2.36-.94-.79-1.99-1.45-2.78-2.38-.77-.91-1.27-2.04-1.93-3.12-.61-1-1.15-2.07-1.68-3.23-.48-1.05-.89-2.19-1.33-3.39-.4-1.09-.79-2.24-1.16-3.46-.34-1.11-.73-2.26-1.06-3.5-.3-1.13-.85-2.25-1.15-3.48-.05-.2,.04-.42,0-.61-.05-.2-.18-.39-.24-.59-.11-.41-.13-.84-.27-1.23-.07-.18-.3-.3-.36-.48-.16-.4-.33-.78-.52-1.17-.09-.19,.05-.49-.05-.67-.1-.21-.28-.38-.42-.59-.15-.29-.31-.58-.5-.85-.27-.44-.72-.77-1.05-1.18-.17-.23-.09-.66-.28-.88-.05-.07-.12-.12-.19-.19-.23-.28-.68-.38-.94-.64-.83-.83-1.6-1.77-2.58-2.43-.97-.65-2.17-.92-3.26-1.37-1.08-.45-2.14-.96-3.31-1.2-1.14-.23-2.31-.41-3.51-.41h0Z"/><path d="M108.18,2.07c8.82,0,16,7.18,16,16s-7.18,16-16,16-16-7.18-16-16,7.18-16,16-16m0-2c-9.94,0-18,8.06-18,18h0c0,9.94,8.06,18,18,18s18-8.06,18-18h0C126.18,8.13,118.13,.07,108.18,.07h0Z"/><path d="M18.18,2.07c8.82,0,16,7.18,16,16s-7.18,16-16,16S2.18,26.89,2.18,18.07,9.36,2.07,18.18,2.07M18.18,.07C8.24,.07,.18,8.13,.18,18.07H.18c0,9.94,8.06,18,18,18s18-8.06,18-18h0C36.18,8.13,28.13,.07,18.18,.07h0Z"/><path d="M63.18,47.07c8.82,0,16,7.18,16,16s-7.18,16-16,16-16-7.18-16-16,7.18-16,16-16m0-2c-9.94,0-18,8.06-18,18h0c0,9.94,8.06,18,18,18s18-8.06,18-18h0c0-9.94-8.06-18-18-18h0Z"/><path d="M108.18,92.07c8.82,0,16,7.18,16,16s-7.18,16-16,16-16-7.18-16-16,7.18-16,16-16m0-2c-9.94,0-18,8.06-18,18s8.06,18,18,18,18-8.06,18-18-8.06-18-18-18h0Z"/><path d="M18.18,92.07c8.82,0,16,7.18,16,16s-7.18,16-16,16S2.18,116.89,2.18,108.07s7.18-16,16-16m0-2C8.24,90.07,.18,98.13,.18,108.07s8.06,18,18,18,18-8.06,18-18-8.06-18-18-18h0Z"/></g></svg>