<?xml version="1.0" encoding="UTF-8"?><svg id="Layer_2" xmlns="http://www.w3.org/2000/svg" viewBox="0 0 153 153"><defs><style>.cls-1{fill:#fff;}.cls-2{opacity:.74;}</style></defs><g id="Layer_1-2"><g class="cls-2"><path class="cls-1" d="M153,135c0,4.97-2.02,9.47-5.27,12.73-3.26,3.25-7.76,5.27-12.73,5.27-8.2,0-15.12-5.49-17.29-12.99-7.09-24.49-26.23-43.63-50.72-50.72-7.5-2.17-12.99-9.09-12.99-17.29,0-4.97,2.02-9.47,5.27-12.73,3.26-3.25,7.76-5.27,12.73-5.27s9.47,2.02,12.73,5.27c2.11,2.12,3.71,4.76,4.56,7.72,7.09,24.49,26.23,43.63,50.72,50.72,2.96,.85,5.6,2.45,7.72,4.56,3.25,3.26,5.27,7.76,5.27,12.73Z"/></g><g class="cls-2"><path class="cls-1" d="M144,72c0,4.97-2.02,9.47-5.27,12.73-3.26,3.25-7.76,5.27-12.73,5.27-5.91,0-11.15-2.85-14.43-7.24-1.95-2.61-2.75-5.86-2.61-9.11,.02-.55,.04-1.09,.04-1.64,0-1.65-.11-3.28-.32-4.88-2.5-18.9-19.33-33.35-39.18-32.04-18.34,1.21-33.2,16.07-34.42,34.42-1.31,19.85,13.14,36.69,32.04,39.18,1.6,.21,3.23,.32,4.88,.32,.55,0,1.1-.01,1.64-.04,3.09-.14,6.21,.55,8.74,2.33,.84,.59,1.62,1.25,2.35,1.97,3.25,3.26,5.27,7.76,5.27,12.73s-2.02,9.47-5.27,12.73c-3.26,3.25-7.76,5.27-12.73,5.27C32.24,144,0,111.76,0,72,0,52.12,8.06,34.12,21.09,21.09S52.12,0,72,0s37.88,8.06,50.91,21.09,21.09,31.03,21.09,50.91Z"/></g></g></svg>