<?xml version="1.0" encoding="UTF-8"?><svg id="Layer_2" xmlns="http://www.w3.org/2000/svg" viewBox="0 0 153 153"><g id="Layer_1-2"><path d="M72,56c4.27,0,8.29,1.66,11.31,4.68,1.92,1.93,3.32,4.3,4.06,6.87,3.57,12.34,10.26,23.66,19.34,32.74s20.4,15.77,32.75,19.34c2.56,.74,4.93,2.14,6.86,4.05,3.02,3.03,4.69,7.05,4.69,11.32s-1.66,8.29-4.68,11.31c-3.03,3.02-7.05,4.69-11.32,4.69-7.08,0-13.4-4.75-15.37-11.55-3.57-12.34-10.26-23.66-19.34-32.74s-20.4-15.77-32.74-19.34c-6.8-1.97-11.55-8.29-11.55-15.37,0-4.27,1.66-8.29,4.68-11.31,3.03-3.02,7.05-4.69,11.32-4.69m0-2c-4.97,0-9.47,2.02-12.73,5.27-3.25,3.26-5.27,7.76-5.27,12.73,0,8.2,5.49,15.12,12.99,17.29,24.49,7.09,43.63,26.23,50.72,50.72,2.17,7.5,9.09,12.99,17.29,12.99,4.97,0,9.47-2.02,12.73-5.27,3.25-3.26,5.27-7.76,5.27-12.73s-2.02-9.47-5.27-12.73c-2.12-2.11-4.76-3.71-7.72-4.56-24.49-7.09-43.63-26.23-50.72-50.72-.85-2.96-2.45-5.6-4.56-7.72-3.26-3.25-7.76-5.27-12.73-5.27h0Z"/><path d="M72,2c18.7,0,36.27,7.28,49.5,20.5,13.22,13.22,20.5,30.8,20.5,49.5,0,4.27-1.66,8.29-4.68,11.31-3.03,3.02-7.05,4.69-11.32,4.69-5.1,0-9.77-2.35-12.82-6.44-1.56-2.09-2.34-4.87-2.21-7.83,.03-.57,.04-1.16,.04-1.73,0-1.71-.11-3.44-.34-5.14-2.55-19.3-19.17-33.86-38.66-33.86-.87,0-1.76,.03-2.63,.09-19.4,1.28-35,16.88-36.28,36.28-1.35,20.48,13.48,38.62,33.77,41.3,1.7,.22,3.43,.34,5.14,.34,.57,0,1.16-.01,1.73-.04,.22,0,.45-.01,.67-.01,2.63,0,4.99,.69,6.83,1.99,.74,.52,1.44,1.11,2.08,1.75,3.02,3.03,4.69,7.05,4.69,11.32s-1.66,8.29-4.68,11.31c-3.03,3.02-7.05,4.69-11.32,4.69C33.4,142,2,110.6,2,72c0-18.7,7.28-36.27,20.5-49.5C35.73,9.28,53.3,2,72,2m0-2C52.12,0,34.12,8.06,21.09,21.09S0,52.12,0,72c0,39.76,32.24,72,72,72,4.97,0,9.47-2.02,12.73-5.27,3.25-3.26,5.27-7.76,5.27-12.73s-2.02-9.47-5.27-12.73c-.72-.72-1.51-1.38-2.35-1.97-2.32-1.64-5.14-2.35-7.98-2.35-.25,0-.51,0-.76,.02-.55,.02-1.09,.04-1.64,.04-1.65,0-3.28-.11-4.88-.32-18.9-2.5-33.35-19.33-32.04-39.18,1.21-18.34,16.07-33.2,34.42-34.42,.84-.06,1.67-.08,2.5-.08,18.75,0,34.29,14.02,36.68,32.12,.21,1.6,.32,3.23,.32,4.88,0,.55-.01,1.1-.04,1.64-.14,3.25,.66,6.5,2.61,9.11,3.28,4.4,8.52,7.24,14.43,7.24,4.97,0,9.47-2.02,12.73-5.27,3.25-3.26,5.27-7.76,5.27-12.73,0-19.88-8.06-37.88-21.09-50.91S91.88,0,72,0h0Z"/></g></svg>